<svg width="63" height="63" viewBox="0 0 63 63" fill="none" xmlns="http://www.w3.org/2000/svg">
<path d="M25.5938 57.0938H37.4063V61.0313H25.5938V57.0938ZM23.6251 51.1876H39.3751V55.1251H23.6251V51.1876ZM45.456 7.71386C41.756 4.00892 36.7997 1.96881 31.5001 1.96881C28.9129 1.96264 26.3501 2.46766 23.9587 3.45487C21.5673 4.44207 19.3945 5.89201 17.5651 7.72139C15.7358 9.55077 14.2858 11.7236 13.2986 14.1149C12.3114 16.5063 11.8064 19.0692 11.8126 21.6563C11.8126 27.3927 14.0114 32.7588 17.8419 36.3776L18.3783 36.8809C20.5944 38.953 23.6251 41.7917 23.6251 44.2969V49.2188H29.5313V33.1132L24.0828 30.0235L26.3321 26.7898L31.5001 29.5313L36.5807 26.7763L38.9309 29.9361L33.4688 33.1353V49.2188H39.3751V44.2969C39.3751 41.8508 42.3725 39.0145 44.5615 36.9424L45.1656 36.369C49.1056 32.6075 51.1876 27.5146 51.1876 21.6563C51.2006 19.0689 50.7008 16.5046 49.717 14.1115C48.7333 11.7184 47.285 9.544 45.456 7.71386Z" fill="white"/>
</svg>
