<svg width="70" height="70" viewBox="0 0 70 70" fill="none" xmlns="http://www.w3.org/2000/svg">
<path d="M24.1354 22.5314L15.3854 13.7814L19.5417 9.62516L28.2917 18.3752L24.1354 22.5314ZM35 15.6043V3.2085H40.8333V15.6043H35ZM56.2187 54.6147L47.4687 45.8647L51.625 41.7085L60.375 50.4585L56.2187 54.6147ZM51.625 22.5314L47.4687 18.3752L56.2187 9.62516L60.375 13.7814L51.625 22.5314ZM54.3958 35.0002V29.1668H66.7917V35.0002H54.3958ZM16.9896 65.4064L4.59375 53.0106L33.1771 24.4272C34.8785 22.7259 36.9444 21.8752 39.375 21.8752C41.8055 21.8752 43.8715 22.7259 45.5729 24.4272C47.2743 26.1286 48.125 28.1946 48.125 30.6252C48.125 33.0557 47.2743 35.1217 45.5729 36.8231L16.9896 65.4064ZM35.2917 38.8647L41.4167 32.6668C42 32.0835 42.2917 31.4029 42.2917 30.6252C42.2917 29.8474 42 29.1668 41.4167 28.5835C40.8333 28.0002 40.1528 27.7085 39.375 27.7085C38.5972 27.7085 37.9167 28.0002 37.3333 28.5835L31.1354 34.7814L35.2917 38.8647Z" fill="white"/>
</svg>
