<svg width="79" height="79" viewBox="0 0 79 79" fill="none" xmlns="http://www.w3.org/2000/svg">
<path d="M8.3279 64.6814L12.7387 66.5247V36.801L4.73998 56.0902C3.3904 59.4477 4.93748 63.2989 8.3279 64.6814ZM72.5154 52.5022L56.1887 13.1668C55.7065 11.9738 54.8851 10.9482 53.8262 10.2169C52.7673 9.48562 51.5174 9.08072 50.2308 9.05225C49.375 9.05225 48.4862 9.18391 47.6304 9.546L23.3708 19.5856C22.1999 20.0825 21.1961 20.9048 20.4785 21.955C19.7609 23.0052 19.3595 24.2392 19.3221 25.5106C19.2891 26.3335 19.4537 27.2881 19.75 28.1439L36.2083 67.4793C37.1629 70.0468 39.5987 71.561 42.1662 71.5939C43.0221 71.5939 43.8779 71.4293 44.7008 71.1002L68.9275 61.0606C70.5379 60.4011 71.8205 59.1291 72.4933 57.5242C73.1661 55.9194 73.1741 54.113 72.5154 52.5022ZM25.9383 28.8022C25.0653 28.8022 24.2281 28.4554 23.6108 27.8381C22.9934 27.2208 22.6466 26.3836 22.6466 25.5106C22.6466 24.6376 22.9934 23.8003 23.6108 23.183C24.2281 22.5657 25.0653 22.2189 25.9383 22.2189C27.7487 22.2189 29.23 23.7002 29.23 25.5106C29.23 27.321 27.7487 28.8022 25.9383 28.8022ZM19.355 65.0106C19.355 66.7566 20.0486 68.4311 21.2832 69.6657C22.5178 70.9003 24.1923 71.5939 25.9383 71.5939H30.7112L19.355 44.1414V65.0106Z" fill="white"/>
</svg>
