<svg width="67" height="67" viewBox="0 0 67 67" fill="none" xmlns="http://www.w3.org/2000/svg">
<path d="M34.5469 14.6562C34.8245 14.6562 35.0908 14.546 35.2871 14.3496C35.4835 14.1533 35.5938 13.887 35.5938 13.6094C35.5938 13.3317 35.4835 13.0654 35.2871 12.8691C35.0908 12.6728 34.8245 12.5625 34.5469 12.5625C34.2692 12.5625 34.0029 12.6728 33.8066 12.8691C33.6103 13.0654 33.5 13.3317 33.5 13.6094C33.5 13.887 33.6103 14.1533 33.8066 14.3496C34.0029 14.546 34.2692 14.6562 34.5469 14.6562ZM50.25 18.8438C50.25 19.399 50.0294 19.9316 49.6368 20.3243C49.2441 20.7169 48.7115 20.9375 48.1562 20.9375C47.601 20.9375 47.0684 20.7169 46.6757 20.3243C46.2831 19.9316 46.0625 19.399 46.0625 18.8438C46.0625 18.2885 46.2831 17.7559 46.6757 17.3632C47.0684 16.9706 47.601 16.75 48.1562 16.75C48.7115 16.75 49.2441 16.9706 49.6368 17.3632C50.0294 17.7559 50.25 18.2885 50.25 18.8438ZM47.1094 29.3125C47.5218 29.3125 47.9302 29.2313 48.3112 29.0734C48.6923 28.9156 49.0385 28.6843 49.3301 28.3926C49.6218 28.101 49.8531 27.7548 50.0109 27.3737C50.1688 26.9927 50.25 26.5843 50.25 26.1719C50.25 25.7594 50.1688 25.351 50.0109 24.97C49.8531 24.589 49.6218 24.2428 49.3301 23.9511C49.0385 23.6595 48.6923 23.4281 48.3112 23.2703C47.9302 23.1125 47.5218 23.0312 47.1094 23.0312C46.2764 23.0312 45.4776 23.3621 44.8886 23.9511C44.2996 24.5401 43.9688 25.3389 43.9688 26.1719C43.9688 27.0048 44.2996 27.8037 44.8886 28.3926C45.4776 28.9816 46.2764 29.3125 47.1094 29.3125ZM32.4531 39.7812C33.2861 39.7812 34.0849 39.4504 34.6739 38.8614C35.2629 38.2724 35.5938 37.4736 35.5938 36.6406C35.5938 35.8077 35.2629 35.0089 34.6739 34.4199C34.0849 33.8309 33.2861 33.5 32.4531 33.5C31.6202 33.5 30.8213 33.8309 30.2324 34.4199C29.6434 35.0089 29.3125 35.8077 29.3125 36.6406C29.3125 37.4736 29.6434 38.2724 30.2324 38.8614C30.8213 39.4504 31.6202 39.7812 32.4531 39.7812ZM23.0312 34.5469C23.0312 35.3798 22.7004 36.1786 22.1114 36.7676C21.5224 37.3566 20.7236 37.6875 19.8906 37.6875C19.0577 37.6875 18.2588 37.3566 17.6699 36.7676C17.0809 36.1786 16.75 35.3798 16.75 34.5469C16.75 33.7139 17.0809 32.9151 17.6699 32.3261C18.2588 31.7371 19.0577 31.4062 19.8906 31.4062C20.7236 31.4062 21.5224 31.7371 22.1114 32.3261C22.7004 32.9151 23.0312 33.7139 23.0312 34.5469ZM41.875 35.5938C42.4303 35.5938 42.9629 35.3732 43.3555 34.9805C43.7482 34.5879 43.9688 34.0553 43.9688 33.5C43.9688 32.9447 43.7482 32.4121 43.3555 32.0195C42.9629 31.6268 42.4303 31.4062 41.875 31.4062C41.3197 31.4062 40.7871 31.6268 40.3945 32.0195C40.0018 32.4121 39.7812 32.9447 39.7812 33.5C39.7812 34.0553 40.0018 34.5879 40.3945 34.9805C40.7871 35.3732 41.3197 35.5938 41.875 35.5938ZM33.5 29.3125C34.0553 29.3125 34.5879 29.0919 34.9805 28.6993C35.3732 28.3066 35.5938 27.774 35.5938 27.2188C35.5938 26.6635 35.3732 26.1309 34.9805 25.7382C34.5879 25.3456 34.0553 25.125 33.5 25.125C32.9447 25.125 32.4121 25.3456 32.0195 25.7382C31.6268 26.1309 31.4062 26.6635 31.4062 27.2188C31.4062 27.774 31.6268 28.3066 32.0195 28.6993C32.4121 29.0919 32.9447 29.3125 33.5 29.3125ZM25.125 27.2188C25.125 27.774 24.9044 28.3066 24.5118 28.6993C24.1191 29.0919 23.5865 29.3125 23.0312 29.3125C22.476 29.3125 21.9434 29.0919 21.5507 28.6993C21.1581 28.3066 20.9375 27.774 20.9375 27.2188C20.9375 26.6635 21.1581 26.1309 21.5507 25.7382C21.9434 25.3456 22.476 25.125 23.0312 25.125C23.5865 25.125 24.1191 25.3456 24.5118 25.7382C24.9044 26.1309 25.125 26.6635 25.125 27.2188ZM17.7969 43.9688C18.0745 43.9688 18.3408 43.8585 18.5371 43.6621C18.7335 43.4658 18.8438 43.1995 18.8438 42.9219C18.8438 42.6442 18.7335 42.3779 18.5371 42.1816C18.3408 41.9853 18.0745 41.875 17.7969 41.875C17.5192 41.875 17.2529 41.9853 17.0566 42.1816C16.8603 42.3779 16.75 42.6442 16.75 42.9219C16.75 43.1995 16.8603 43.4658 17.0566 43.6621C17.2529 43.8585 17.5192 43.9688 17.7969 43.9688ZM31.4062 46.0625C31.4062 46.6178 31.1857 47.1504 30.793 47.543C30.4004 47.9357 29.8678 48.1562 29.3125 48.1562C28.7572 48.1562 28.2246 47.9357 27.832 47.543C27.4393 47.1504 27.2188 46.6178 27.2188 46.0625C27.2188 45.5072 27.4393 44.9746 27.832 44.582C28.2246 44.1893 28.7572 43.9688 29.3125 43.9688C29.8678 43.9688 30.4004 44.1893 30.793 44.582C31.1857 44.9746 31.4062 45.5072 31.4062 46.0625ZM39.7812 19.8906C39.7812 20.1683 39.671 20.4346 39.4746 20.6309C39.2783 20.8272 39.012 20.9375 38.7344 20.9375C38.4567 20.9375 38.1904 20.8272 37.9941 20.6309C37.7978 20.4346 37.6875 20.1683 37.6875 19.8906C37.6875 19.613 37.7978 19.3467 37.9941 19.1504C38.1904 18.954 38.4567 18.8438 38.7344 18.8438C39.012 18.8438 39.2783 18.954 39.4746 19.1504C39.671 19.3467 39.7812 19.613 39.7812 19.8906Z" fill="white"/>
<path d="M38.6171 2.1085C41.7913 2.276 44.5424 3.91122 46.3452 5.79768L58.1707 17.6713C60.1262 19.6604 60.8088 22.3257 60.7062 24.9115L60.7188 33.4436C60.7188 34.1617 60.6266 34.9615 60.2749 35.8409C59.9294 36.6993 59.3788 37.5285 58.6041 38.3806C57.0903 40.0431 54.5275 41.9965 50.3128 44.6263C49.2031 45.3172 47.995 46.5379 46.6802 48.1919C45.3778 49.8251 44.0902 51.7262 42.769 53.6797L42.7481 53.709C41.651 55.3337 40.5245 56.9962 39.4065 58.4576C38.2926 59.9127 37.0971 61.2883 35.8283 62.2682C34.6495 63.1811 32.2165 64.362 29.48 64.764C26.6953 65.1722 23.2302 64.8142 20.5062 62.0944C18.3622 59.9525 15.9983 57.3102 13.9255 54.9715L13.31 54.2764C11.4675 52.1973 9.9516 50.4846 9.01569 49.5801C7.4391 48.0558 6.80678 45.9767 6.53041 44.5216C6.36405 43.6309 6.28064 42.7267 6.28125 41.8207V41.7788L6.29172 35.3321C6.28023 34.9972 6.28023 34.662 6.29172 34.3271V34.2978C6.37547 32.1412 6.94078 30.215 7.60869 28.8582C9.29625 25.4245 12.3741 23.5485 15.7764 21.572C20.68 18.7245 22.5853 15.9817 25.2171 12.1962C26.4225 10.4293 27.6865 8.70313 29.0068 7.02043C31.9046 3.37312 35.3132 1.93262 38.6171 2.1085ZM10.4771 35.2756C10.563 37.3945 11.4209 39.4089 12.8891 40.9392C14.79 42.9591 16.6305 45.0349 18.4083 47.1639L19.0427 47.9177C20.3848 49.5089 21.5133 50.8468 22.4911 51.8727L22.5832 51.967L22.6607 52.0737C23.7913 53.6064 25.4098 54.2764 27.1371 54.4125C28.9189 54.5527 30.619 54.0984 31.5403 53.6064C32.3861 53.1541 33.7303 51.8769 35.3467 49.6911C36.9086 47.5764 38.569 44.8252 40.0995 41.7139C41.473 38.9166 43.7468 36.6993 45.9285 35.1186C48.0976 33.5482 50.3756 32.4679 51.9627 32.0617C53.5958 31.6492 55.3127 29.7795 56.1188 27.1121C56.3449 26.3625 56.4768 25.6255 56.5187 24.9241V23.94C56.4287 22.5833 55.9743 21.4129 55.1892 20.611L55.185 20.6089L43.3469 8.72056L43.3302 8.70381C42.0907 7.4015 40.2838 6.38812 38.3973 6.28972C36.6281 6.19759 34.461 6.88644 32.2856 9.62506C31.1531 11.0755 30.0686 12.5629 29.034 14.0847C26.2075 18.1529 23.6384 21.8463 17.8806 25.1942C14.3422 27.2502 12.4159 28.5693 11.367 30.7049C10.8356 31.834 10.5339 33.0574 10.4792 34.3041L10.4771 35.2756Z" fill="white"/>
</svg>
