<svg xmlns="http://www.w3.org/2000/svg" width="70" height="70" fill="none" viewBox="0 0 70 70"><path fill="#378bc5" d="M8.75 50.313V61.25h10.938l32.258-32.287-10.938-10.938zm57.196 3.237L53.55 65.946 38.383 50.779l5.163-5.162 2.916 2.916 7.205-7.233 4.141 4.142-4.258 4.141 3.092 2.917 4.141-4.083zM19.279 31.588 4.054 16.45 16.45 4.054l5.133 5.163-7.204 7.233 3.121 3.092 7.175-7.234 4.142 4.142-4.142 4.113 2.917 2.916zm41.125-11.171c1.138-1.138 1.138-2.917 0-4.113L53.58 9.596c-1.079-1.138-2.975-1.138-4.112 0L44.1 14.933l10.938 10.938z"/></svg>