<svg xmlns="http://www.w3.org/2000/svg" width="65" height="65" fill="none" viewBox="0 0 65 65"><path fill="#378bc5" d="m62.96 58.157-8.793-8.739v-33.62l-4.153-7.637a3.611 3.611 0 0 0-6.392 0l-3.9 7.656v19.229L6.7 2.185a1.805 1.805 0 0 0-3.09 1.282v14.588h3.92v2.89H3.611V32.5H7.53v2.889H3.611v12.007H7.53v2.889H3.611v9.154a1.806 1.806 0 0 0 1.806 1.805h56.26a1.805 1.805 0 0 0 1.283-3.087M18.056 46.944V30.586l16.376 16.358zm32.5 3.81h-7.223v-4.387h7.223zm0-7.222h-7.223v-26.83l3.503-6.808 3.72 6.825z"/></svg>