<svg xmlns="http://www.w3.org/2000/svg" width="63" height="63" fill="none" viewBox="0 0 63 63"><path fill="#378bc5" d="M25.594 57.094h11.812v3.937H25.594zm-1.969-5.907h15.75v3.938h-15.75zM45.456 7.715C41.756 4.009 36.8 1.969 31.5 1.969a19.64 19.64 0 0 0-19.687 19.687c0 5.737 2.198 11.103 6.029 14.722l.536.503c2.216 2.072 5.247 4.91 5.247 7.416v4.922h5.906V33.113l-5.448-3.09 2.249-3.233 5.168 2.74 5.08-2.755 2.35 3.16-5.461 3.2v16.083h5.906v-4.922c0-2.446 2.997-5.282 5.186-7.355l.605-.573c3.94-3.762 6.022-8.854 6.022-14.713a19.6 19.6 0 0 0-5.732-13.942"/></svg>