<svg xmlns="http://www.w3.org/2000/svg" width="76" height="76" fill="none" viewBox="0 0 76 76"><path fill="#378bc5" d="M38 47.5c-13.997 0-25.333 5.668-25.333 12.667V66.5h50.666v-6.333C63.333 53.168 51.997 47.5 38 47.5m-12.667-19a12.667 12.667 0 1 0 25.334 0M36.417 6.333c-.95 0-1.584.665-1.584 1.584v9.5h-3.166V9.5s-7.125 2.723-7.125 11.875c0 0-2.375.443-2.375 3.958h31.666c-.158-3.515-2.375-3.958-2.375-3.958 0-9.152-7.125-11.875-7.125-11.875v7.917h-3.166v-9.5c0-.919-.602-1.584-1.584-1.584z"/></svg>