<svg xmlns="http://www.w3.org/2000/svg" width="77" height="77" fill="none" viewBox="0 0 77 77"><path fill="#378bc5" d="M36.094 70.583q-2.647 0-5.332-.6t-5.496-1.726q.962-9.705 5.614-18.127t11.951-14.838q-8.822 4.491-15.278 11.87-6.455 7.38-9.025 16.844a6 6 0 0 1-.6-.52l-.603-.603q-3.77-3.77-5.733-8.422a24.8 24.8 0 0 1-1.967-9.705q0-5.453 2.166-10.427a28.4 28.4 0 0 1 6.015-8.823q6.497-6.497 16.844-8.46t29.035-.363q1.444 19.17-.48 29.238-1.926 10.068-8.343 16.481-3.93 3.93-8.784 6.057t-9.984 2.124"/></svg>